<svg width="512" height="512" viewBox="0 0 512 512" fill="none" xmlns="http://www.w3.org/2000/svg">
<rect width="328" height="56" rx="28" fill="white"/>
<path d="M123.607 21.56H125.735V26.424H130.871V21.56H133.015V33H130.871V28.136H125.735V33H123.607V21.56ZM137.576 33.16C137.192 33.16 136.83 33.112 136.488 33.016C136.147 32.92 135.848 32.776 135.592 32.584C135.347 32.3813 135.15 32.1253 135 31.816C134.851 31.496 134.776 31.1173 134.776 30.68C134.776 30.1893 134.888 29.7787 135.112 29.448C135.336 29.1067 135.64 28.8347 136.024 28.632C136.408 28.4187 136.862 28.264 137.384 28.168C137.907 28.072 138.467 28.024 139.064 28.024H140.104V27.592C140.104 27.0267 139.992 26.6053 139.768 26.328C139.555 26.0507 139.16 25.912 138.584 25.912C138.072 25.912 137.688 26.0293 137.432 26.264C137.187 26.488 137.038 26.808 136.984 27.224H135.112C135.155 26.7333 135.278 26.3173 135.48 25.976C135.683 25.624 135.944 25.336 136.264 25.112C136.584 24.888 136.952 24.7227 137.368 24.616C137.784 24.5093 138.227 24.456 138.696 24.456C139.166 24.456 139.603 24.5093 140.008 24.616C140.414 24.712 140.766 24.8827 141.064 25.128C141.374 25.3627 141.614 25.6773 141.784 26.072C141.955 26.456 142.04 26.936 142.04 27.512V33H140.136V31.976C139.859 32.3387 139.523 32.6267 139.128 32.84C138.734 33.0533 138.216 33.16 137.576 33.16ZM138.04 31.768C138.638 31.768 139.128 31.624 139.512 31.336C139.907 31.0373 140.104 30.616 140.104 30.072V29.24H139.112C138.376 29.24 137.79 29.3413 137.352 29.544C136.915 29.736 136.696 30.088 136.696 30.6C136.696 30.952 136.798 31.2347 137 31.448C137.214 31.6613 137.56 31.768 138.04 31.768ZM148.921 33V29.288C148.846 29.3733 148.745 29.4693 148.617 29.576C148.489 29.6827 148.324 29.784 148.121 29.88C147.929 29.976 147.694 30.0613 147.417 30.136C147.15 30.2 146.841 30.232 146.489 30.232C146.105 30.232 145.742 30.1733 145.401 30.056C145.07 29.928 144.782 29.736 144.537 29.48C144.292 29.224 144.1 28.8987 143.961 28.504C143.822 28.0987 143.753 27.6133 143.753 27.048V24.632H145.673V26.84C145.673 27.48 145.796 27.9493 146.041 28.248C146.286 28.536 146.67 28.68 147.193 28.68C147.662 28.68 148.036 28.5947 148.313 28.424C148.59 28.2427 148.793 28.0613 148.921 27.88V24.632H150.857V33H148.921ZM155.357 33.16C154.973 33.16 154.611 33.112 154.269 33.016C153.928 32.92 153.629 32.776 153.373 32.584C153.128 32.3813 152.931 32.1253 152.781 31.816C152.632 31.496 152.557 31.1173 152.557 30.68C152.557 30.1893 152.669 29.7787 152.893 29.448C153.117 29.1067 153.421 28.8347 153.805 28.632C154.189 28.4187 154.643 28.264 155.165 28.168C155.688 28.072 156.248 28.024 156.845 28.024H157.885V27.592C157.885 27.0267 157.773 26.6053 157.549 26.328C157.336 26.0507 156.941 25.912 156.365 25.912C155.853 25.912 155.469 26.0293 155.213 26.264C154.968 26.488 154.819 26.808 154.765 27.224H152.893C152.936 26.7333 153.059 26.3173 153.261 25.976C153.464 25.624 153.725 25.336 154.045 25.112C154.365 24.888 154.733 24.7227 155.149 24.616C155.565 24.5093 156.008 24.456 156.477 24.456C156.947 24.456 157.384 24.5093 157.789 24.616C158.195 24.712 158.547 24.8827 158.845 25.128C159.155 25.3627 159.395 25.6773 159.565 26.072C159.736 26.456 159.821 26.936 159.821 27.512V33H157.917V31.976C157.64 32.3387 157.304 32.6267 156.909 32.84C156.515 33.0533 155.997 33.16 155.357 33.16ZM155.821 31.768C156.419 31.768 156.909 31.624 157.293 31.336C157.688 31.0373 157.885 30.616 157.885 30.072V29.24H156.893C156.157 29.24 155.571 29.3413 155.133 29.544C154.696 29.736 154.477 30.088 154.477 30.6C154.477 30.952 154.579 31.2347 154.781 31.448C154.995 31.6613 155.341 31.768 155.821 31.768ZM168.218 26.072H165.658V33H163.722V26.072H161.162V24.632H168.218V26.072ZM169.728 24.632H171.664V27.384H173.168C173.637 27.384 174.069 27.4427 174.464 27.56C174.859 27.6773 175.195 27.8587 175.472 28.104C175.76 28.3387 175.984 28.632 176.144 28.984C176.304 29.336 176.384 29.7467 176.384 30.216V30.264C176.384 30.7333 176.304 31.144 176.144 31.496C175.995 31.8373 175.776 32.12 175.488 32.344C175.2 32.568 174.853 32.7333 174.448 32.84C174.053 32.9467 173.611 33 173.12 33H169.728V24.632ZM172.88 31.608C173.424 31.608 173.819 31.496 174.064 31.272C174.309 31.048 174.432 30.7067 174.432 30.248V30.2C174.432 29.2613 173.915 28.792 172.88 28.792H171.664V31.608H172.88ZM181.869 33V24.632H183.805V30.552L187.421 24.632H189.341V33H187.421V27.08L183.805 33H181.869ZM193.508 26.072V33H191.572V24.632H197.156V26.072H193.508ZM198.697 24.632H200.633V25.976C200.75 25.7733 200.899 25.5813 201.081 25.4C201.262 25.2187 201.47 25.0587 201.705 24.92C201.95 24.7813 202.211 24.6693 202.489 24.584C202.766 24.4987 203.059 24.456 203.369 24.456C203.891 24.456 204.377 24.552 204.825 24.744C205.283 24.936 205.678 25.2133 206.009 25.576C206.339 25.9387 206.601 26.3867 206.793 26.92C206.985 27.4427 207.081 28.04 207.081 28.712V28.84C207.081 29.512 206.985 30.1147 206.793 30.648C206.611 31.1813 206.355 31.6347 206.025 32.008C205.705 32.3813 205.315 32.6693 204.857 32.872C204.409 33.064 203.913 33.16 203.369 33.16C202.697 33.16 202.126 33.016 201.657 32.728C201.198 32.44 200.857 32.0933 200.633 31.688V35.864H198.697V24.632ZM202.889 31.624C203.603 31.624 204.147 31.3947 204.521 30.936C204.905 30.4667 205.097 29.7787 205.097 28.872V28.744C205.097 28.2853 205.038 27.8853 204.921 27.544C204.814 27.192 204.659 26.8987 204.457 26.664C204.254 26.4293 204.019 26.2587 203.753 26.152C203.486 26.0347 203.193 25.976 202.873 25.976C202.201 25.976 201.646 26.2053 201.209 26.664C200.782 27.112 200.569 27.8053 200.569 28.744V28.872C200.569 29.8107 200.777 30.504 201.193 30.952C201.619 31.4 202.185 31.624 202.889 31.624ZM211.035 32.152L207.723 24.632H209.819L212.043 30.024L214.091 24.632H215.979L211.419 35.864H209.515L211.035 32.152Z" fill="black"/>
<path d="M353.442 125.197L354 126.605L354.558 125.197C355.633 122.481 357.885 121.41 359.81 121.628C361.716 121.845 363.4 123.331 363.4 126.034C363.4 127.538 362.83 129.065 361.926 130.536C361.024 132.004 359.812 133.379 358.583 134.566C357.357 135.75 356.127 136.735 355.204 137.423C354.743 137.767 354.359 138.036 354.091 138.219C354.059 138.241 354.029 138.261 354 138.281C353.971 138.261 353.941 138.241 353.909 138.219C353.641 138.036 353.257 137.767 352.796 137.423C351.873 136.735 350.643 135.75 349.417 134.566C348.188 133.379 346.976 132.004 346.074 130.536C345.17 129.065 344.6 127.538 344.6 126.034C344.6 123.331 346.285 121.844 348.19 121.628C350.115 121.409 352.367 122.481 353.442 125.197Z" fill="#3D3BFF" stroke="#3D3BFF" stroke-width="1.2"/>
<path d="M378.442 125.197L379 126.605L379.558 125.197C380.633 122.481 382.885 121.41 384.81 121.628C386.716 121.845 388.4 123.331 388.4 126.034C388.4 127.538 387.83 129.065 386.926 130.536C386.024 132.004 384.812 133.379 383.583 134.566C382.357 135.75 381.127 136.735 380.204 137.423C379.743 137.767 379.359 138.036 379.091 138.219C379.059 138.241 379.029 138.261 379 138.281C378.971 138.261 378.941 138.241 378.909 138.219C378.641 138.036 378.257 137.767 377.796 137.423C376.873 136.735 375.643 135.75 374.417 134.566C373.188 133.379 371.976 132.004 371.074 130.536C370.17 129.065 369.6 127.538 369.6 126.034C369.6 123.331 371.285 121.844 373.19 121.628C375.115 121.409 377.367 122.481 378.442 125.197Z" fill="#3D3BFF" stroke="#3D3BFF" stroke-width="1.2"/>
<path d="M403.442 125.197L404 126.605L404.558 125.197C405.633 122.481 407.885 121.41 409.81 121.628C411.716 121.845 413.4 123.331 413.4 126.034C413.4 127.538 412.83 129.065 411.926 130.536C411.024 132.004 409.812 133.379 408.583 134.566C407.357 135.75 406.127 136.735 405.204 137.423C404.743 137.767 404.359 138.036 404.091 138.219C404.059 138.241 404.029 138.261 404 138.281C403.971 138.261 403.941 138.241 403.909 138.219C403.641 138.036 403.257 137.767 402.796 137.423C401.873 136.735 400.643 135.75 399.417 134.566C398.188 133.379 396.976 132.004 396.074 130.536C395.17 129.065 394.6 127.538 394.6 126.034C394.6 123.331 396.285 121.844 398.19 121.628C400.115 121.409 402.367 122.481 403.442 125.197Z" stroke="#3D3BFF" stroke-width="1.2"/>
<rect y="171" width="46" height="46" rx="23" fill="white"/>
<path d="M23 185C20.439 185 18.138 186.075 16.5 187.793V184H15V191H22V189.5H17.039C18.405 187.686 20.559 186.5 23 186.5C27.136 186.5 30.5 189.864 30.5 194C30.5 198.136 27.136 201.5 23 201.5C18.864 201.5 15.5 198.136 15.5 194H14C14 198.971 18.029 203 23 203C27.971 203 32 198.971 32 194C32 189.029 27.971 185 23 185Z" fill="black"/>
<g filter="url(#filter0_d_1_177)">
<rect x="11" y="110" width="92" height="40" rx="20" fill="white"/>
</g>
<g filter="url(#filter1_d_1_177)">
<rect x="239" y="110" width="100" height="40" rx="20" fill="white"/>
</g>
<g filter="url(#filter2_d_1_177)">
<rect x="107" y="110" width="128" height="40" rx="20" fill="white"/>
</g>
<rect x="111" y="171" width="46" height="46" rx="23" fill="white"/>
<path d="M136 184V204L129.748 197.75C128.925 197.75 128.338 197.711 127.506 197.635C125.518 197.453 123.997 197.071 124 193.999C123.997 190.93 125.518 190.547 127.506 190.365C128.338 190.289 129.743 190.25 129.743 190.25L136 184ZM141.071 186.929L140.007 187.992C141.547 189.531 142.5 191.656 142.5 194C142.5 196.343 141.547 198.468 140.008 200.007L141.071 201.07C142.88 199.26 143.999 196.761 143.999 194C143.999 191.239 142.881 188.738 141.071 186.929ZM138.947 189.053L137.887 190.114C138.883 191.11 139.5 192.485 139.5 194.001C139.5 195.517 138.883 196.892 137.888 197.888L138.948 198.949C140.215 197.68 141 195.93 141 194C141 192.07 140.215 190.32 138.947 189.053Z" fill="black"/>
<rect x="165" y="171" width="46" height="46" rx="23" fill="white"/>
<path d="M190 193.879V184L185.058 188.937L180.222 184.101L179.161 185.162L196.839 202.84L197.9 201.779L190 193.879ZM181.506 190.365C179.518 190.547 177.997 190.929 178 193.999C177.997 197.07 179.518 197.453 181.506 197.635C182.338 197.711 182.925 197.75 183.748 197.75L190 204V198.121L182.194 190.316C181.95 190.33 181.711 190.347 181.506 190.365Z" fill="black"/>
<rect x="54" y="171" width="46" height="46" rx="23" fill="white"/>
<path d="M77 185C74.439 185 72.138 186.075 70.5 187.793V184H69V191H76V189.5H71.039C72.405 187.686 74.559 186.5 77 186.5C81.136 186.5 84.5 189.864 84.5 194C84.5 198.136 81.136 201.5 77 201.5C72.864 201.5 69.5 198.136 69.5 194H68C68 198.971 72.029 203 77 203C81.971 203 86 198.971 86 194C86 189.029 81.971 185 77 185Z" fill="#E4E4E4"/>
<defs>
<filter id="filter0_d_1_177" x="3" y="102" width="108" height="56" filterUnits="userSpaceOnUse" color-interpolation-filters="sRGB">
<feFlood flood-opacity="0" result="BackgroundImageFix"/>
<feColorMatrix in="SourceAlpha" type="matrix" values="0 0 0 0 0 0 0 0 0 0 0 0 0 0 0 0 0 0 127 0" result="hardAlpha"/>
<feOffset/>
<feGaussianBlur stdDeviation="4"/>
<feComposite in2="hardAlpha" operator="out"/>
<feColorMatrix type="matrix" values="0 0 0 0 0 0 0 0 0 0 0 0 0 0 0 0 0 0 0.1 0"/>
<feBlend mode="normal" in2="BackgroundImageFix" result="effect1_dropShadow_1_177"/>
<feBlend mode="normal" in="SourceGraphic" in2="effect1_dropShadow_1_177" result="shape"/>
</filter>
<filter id="filter1_d_1_177" x="231" y="102" width="116" height="56" filterUnits="userSpaceOnUse" color-interpolation-filters="sRGB">
<feFlood flood-opacity="0" result="BackgroundImageFix"/>
<feColorMatrix in="SourceAlpha" type="matrix" values="0 0 0 0 0 0 0 0 0 0 0 0 0 0 0 0 0 0 127 0" result="hardAlpha"/>
<feOffset/>
<feGaussianBlur stdDeviation="4"/>
<feComposite in2="hardAlpha" operator="out"/>
<feColorMatrix type="matrix" values="0 0 0 0 0 0 0 0 0 0 0 0 0 0 0 0 0 0 0.1 0"/>
<feBlend mode="normal" in2="BackgroundImageFix" result="effect1_dropShadow_1_177"/>
<feBlend mode="normal" in="SourceGraphic" in2="effect1_dropShadow_1_177" result="shape"/>
</filter>
<filter id="filter2_d_1_177" x="99" y="102" width="144" height="56" filterUnits="userSpaceOnUse" color-interpolation-filters="sRGB">
<feFlood flood-opacity="0" result="BackgroundImageFix"/>
<feColorMatrix in="SourceAlpha" type="matrix" values="0 0 0 0 0 0 0 0 0 0 0 0 0 0 0 0 0 0 127 0" result="hardAlpha"/>
<feOffset/>
<feGaussianBlur stdDeviation="4"/>
<feComposite in2="hardAlpha" operator="out"/>
<feColorMatrix type="matrix" values="0 0 0 0 0 0 0 0 0 0 0 0 0 0 0 0 0 0 0.1 0"/>
<feBlend mode="normal" in2="BackgroundImageFix" result="effect1_dropShadow_1_177"/>
<feBlend mode="normal" in="SourceGraphic" in2="effect1_dropShadow_1_177" result="shape"/>
</filter>
</defs>
</svg>
