<svg width="512" height="512" viewBox="0 0 512 512" fill="none" xmlns="http://www.w3.org/2000/svg">
<g clip-path="url(#clip0_1_213)">
<rect width="328" height="148" rx="15" fill="white"/>
</g>
<rect x="0.5" y="183.5" width="91" height="39" rx="19.5" fill="white" stroke="black"/>
<rect x="96.5" y="183.5" width="91" height="39" rx="19.5" fill="white" stroke="black"/>
<rect y="276" width="328" height="148" rx="15" fill="white"/>
<rect x="0.75" y="442.75" width="26.5" height="26.5" rx="7.25" stroke="#131313" stroke-width="1.5"/>
<path fill-rule="evenodd" clip-rule="evenodd" d="M14.5446 463V456.616H16.6069L16.9138 454.124H14.5446V452.534C14.5446 451.817 14.7384 451.324 15.7292 451.324H17V449.095C16.3863 449.031 15.7699 448.999 15.1531 449C13.3223 449 12.0677 450.159 12.0677 452.287V454.124H10V456.616H12.0677V463H14.5446Z" fill="black"/>
<rect x="48.75" y="442.75" width="26.5" height="26.5" rx="7.25" stroke="#131313" stroke-width="1.5"/>
<path fill-rule="evenodd" clip-rule="evenodd" d="M54 451C54.1299 457.246 57.2479 461 62.7145 461H63.0244V457.426C65.0332 457.627 66.5521 459.098 67.1617 461H70C69.2205 458.157 67.1717 456.586 65.8925 455.985C67.1717 455.244 68.9705 453.442 69.4003 451H66.8218C66.2622 452.982 64.6034 454.784 63.0244 454.954V451H60.4459V457.927C58.8469 457.527 56.8282 455.585 56.7383 451H54Z" fill="black"/>
<rect x="96.75" y="442.75" width="26.5" height="26.5" rx="7.25" stroke="#131313" stroke-width="1.5"/>
<mask id="path-10-inside-1_1_213" fill="white">
<path d="M102.92 455.662C102.92 455.662 109.554 452.808 111.855 451.803C112.737 451.401 115.728 450.115 115.728 450.115C115.728 450.115 117.108 449.552 116.993 450.919C116.955 451.481 116.648 453.451 116.341 455.581C115.881 458.596 115.383 461.892 115.383 461.892C115.383 461.892 115.306 462.816 114.654 462.977C114.002 463.138 112.928 462.414 112.737 462.253C112.583 462.133 109.861 460.324 108.863 459.44C108.595 459.199 108.288 458.716 108.902 458.154C110.282 456.827 111.931 455.179 112.928 454.134C113.389 453.652 113.849 452.526 111.931 453.893C109.209 455.863 106.524 457.711 106.524 457.711C106.524 457.711 105.911 458.113 104.76 457.752C103.61 457.39 102.268 456.908 102.268 456.908C102.268 456.908 101.347 456.305 102.92 455.662Z"/>
</mask>
<path d="M102.92 455.662C102.92 455.662 109.554 452.808 111.855 451.803C112.737 451.401 115.728 450.115 115.728 450.115C115.728 450.115 117.108 449.552 116.993 450.919C116.955 451.481 116.648 453.451 116.341 455.581C115.881 458.596 115.383 461.892 115.383 461.892C115.383 461.892 115.306 462.816 114.654 462.977C114.002 463.138 112.928 462.414 112.737 462.253C112.583 462.133 109.861 460.324 108.863 459.44C108.595 459.199 108.288 458.716 108.902 458.154C110.282 456.827 111.931 455.179 112.928 454.134C113.389 453.652 113.849 452.526 111.931 453.893C109.209 455.863 106.524 457.711 106.524 457.711C106.524 457.711 105.911 458.113 104.76 457.752C103.61 457.39 102.268 456.908 102.268 456.908C102.268 456.908 101.347 456.305 102.92 455.662Z" fill="black"/>
<path d="M102.92 455.662L104.813 460.289L104.854 460.272L104.895 460.255L102.92 455.662ZM111.855 451.803L113.856 456.385L113.892 456.369L113.928 456.353L111.855 451.803ZM115.728 450.115L113.841 445.485L113.796 445.503L113.752 445.521L115.728 450.115ZM116.993 450.919L112.011 450.499L112.007 450.539L112.005 450.578L116.993 450.919ZM116.341 455.581L121.284 456.336L121.287 456.315L121.29 456.294L116.341 455.581ZM115.383 461.892L110.439 461.144L110.414 461.31L110.4 461.478L115.383 461.892ZM112.737 462.253L115.95 458.423L115.889 458.371L115.826 458.322L112.737 462.253ZM108.863 459.44L105.522 463.159L105.534 463.17L105.546 463.18L108.863 459.44ZM108.902 458.154L112.282 461.838L112.324 461.799L112.366 461.759L108.902 458.154ZM112.928 454.134L109.311 450.683L112.928 454.134ZM111.931 453.893L109.029 449.821L109.015 449.832L109.001 449.842L111.931 453.893ZM106.524 457.711L109.264 461.894L109.313 461.862L109.361 461.829L106.524 457.711ZM104.76 457.752L106.26 452.982L106.26 452.982L104.76 457.752ZM102.268 456.908L99.5277 461.09L100.021 461.413L100.577 461.613L102.268 456.908ZM102.92 455.662C104.895 460.255 104.895 460.255 104.895 460.255C104.896 460.255 104.896 460.255 104.896 460.254C104.896 460.254 104.896 460.254 104.897 460.254C104.897 460.254 104.899 460.253 104.9 460.253C104.903 460.251 104.908 460.249 104.915 460.246C104.927 460.241 104.946 460.233 104.971 460.222C105.02 460.201 105.092 460.17 105.186 460.13C105.372 460.05 105.64 459.934 105.969 459.792C106.628 459.509 107.53 459.12 108.504 458.701C110.447 457.863 112.692 456.893 113.856 456.385L109.853 447.221C108.716 447.718 106.494 448.677 104.545 449.518C103.573 449.937 102.672 450.324 102.015 450.607C101.686 450.749 101.418 450.864 101.233 450.944C101.14 450.984 101.068 451.015 101.019 451.036C100.994 451.047 100.975 451.055 100.963 451.06C100.957 451.063 100.952 451.065 100.949 451.066C100.947 451.067 100.946 451.068 100.945 451.068C100.945 451.068 100.944 451.068 100.944 451.068C100.944 451.068 100.944 451.068 100.944 451.068C100.944 451.068 100.944 451.068 102.92 455.662ZM113.928 456.353C114.317 456.175 115.237 455.774 116.11 455.396C116.535 455.212 116.934 455.039 117.226 454.913C117.373 454.85 117.492 454.799 117.575 454.763C117.616 454.745 117.648 454.732 117.67 454.722C117.681 454.718 117.689 454.714 117.695 454.712C117.698 454.71 117.7 454.709 117.701 454.709C117.702 454.709 117.702 454.708 117.703 454.708C117.703 454.708 117.703 454.708 117.703 454.708C117.703 454.708 117.703 454.708 117.703 454.708C117.703 454.708 117.703 454.708 115.728 450.115C113.752 445.521 113.752 445.521 113.752 445.521C113.752 445.521 113.752 445.522 113.752 445.522C113.752 445.522 113.752 445.522 113.752 445.522C113.751 445.522 113.751 445.522 113.75 445.522C113.749 445.523 113.746 445.524 113.743 445.525C113.738 445.528 113.729 445.532 113.718 445.536C113.695 445.546 113.662 445.56 113.62 445.578C113.536 445.615 113.415 445.667 113.267 445.731C112.971 445.858 112.566 446.033 112.134 446.22C111.291 446.586 110.274 447.028 109.781 447.253L113.928 456.353ZM115.728 450.115C117.615 454.745 117.613 454.746 117.611 454.746C117.611 454.747 117.609 454.747 117.608 454.748C117.605 454.749 117.603 454.75 117.6 454.751C117.595 454.753 117.59 454.755 117.586 454.757C117.576 454.761 117.566 454.764 117.557 454.768C117.538 454.775 117.52 454.783 117.501 454.789C117.465 454.803 117.429 454.816 117.392 454.829C117.321 454.853 117.235 454.879 117.136 454.903C117.001 454.937 116.563 455.039 115.95 454.984C115.304 454.925 113.985 454.627 112.963 453.369C111.966 452.142 111.978 450.889 112.011 450.499L121.976 451.338C122.066 450.265 121.948 448.57 120.725 447.064C119.477 445.527 117.834 445.114 116.858 445.025C115.914 444.939 115.137 445.097 114.747 445.193C114.52 445.249 114.328 445.308 114.182 445.358C114.108 445.383 114.042 445.407 113.985 445.428C113.957 445.439 113.93 445.449 113.906 445.458C113.894 445.463 113.883 445.468 113.872 445.472C113.866 445.474 113.861 445.476 113.856 445.478C113.853 445.479 113.851 445.48 113.848 445.482C113.847 445.482 113.845 445.483 113.844 445.483C113.842 445.484 113.841 445.485 115.728 450.115ZM112.005 450.578C112.007 450.545 112 450.633 111.961 450.935C111.926 451.199 111.878 451.538 111.819 451.947C111.715 452.668 111.535 453.875 111.392 454.868L121.29 456.294C121.56 454.418 121.926 452.071 121.982 451.259L112.005 450.578ZM111.399 454.827C111.168 456.336 110.928 457.915 110.746 459.117C110.655 459.718 110.578 460.224 110.524 460.581C110.497 460.759 110.476 460.9 110.461 460.996C110.454 461.044 110.448 461.081 110.445 461.106C110.443 461.118 110.441 461.128 110.44 461.134C110.44 461.137 110.439 461.14 110.439 461.141C110.439 461.142 110.439 461.143 110.439 461.143C110.439 461.143 110.439 461.144 110.439 461.144C110.439 461.144 110.439 461.144 110.439 461.144C110.439 461.144 110.439 461.144 115.383 461.892C120.326 462.639 120.326 462.639 120.326 462.639C120.326 462.639 120.326 462.639 120.326 462.639C120.326 462.639 120.326 462.639 120.326 462.639C120.326 462.638 120.327 462.638 120.327 462.637C120.327 462.635 120.327 462.633 120.328 462.63C120.329 462.624 120.33 462.614 120.332 462.602C120.336 462.577 120.341 462.54 120.349 462.492C120.363 462.396 120.384 462.256 120.411 462.078C120.465 461.722 120.542 461.217 120.633 460.617C120.815 459.417 121.054 457.841 121.284 456.336L111.399 454.827ZM115.383 461.892C110.4 461.478 110.4 461.477 110.4 461.475C110.4 461.474 110.4 461.473 110.4 461.472C110.4 461.469 110.401 461.467 110.401 461.465C110.401 461.461 110.402 461.456 110.402 461.452C110.403 461.443 110.404 461.435 110.404 461.426C110.406 461.409 110.408 461.392 110.409 461.376C110.413 461.343 110.417 461.311 110.421 461.279C110.429 461.216 110.439 461.151 110.453 461.082C110.476 460.96 110.523 460.761 110.621 460.514C110.748 460.198 111.453 458.617 113.457 458.122L115.851 467.831C118.507 467.176 119.576 465.052 119.904 464.234C120.103 463.736 120.21 463.295 120.268 462.995C120.299 462.837 120.32 462.698 120.335 462.584C120.343 462.527 120.349 462.475 120.354 462.428C120.356 462.405 120.358 462.383 120.36 462.363C120.361 462.352 120.362 462.342 120.363 462.333C120.364 462.328 120.364 462.323 120.364 462.319C120.365 462.316 120.365 462.314 120.365 462.312C120.365 462.311 120.365 462.309 120.365 462.308C120.365 462.307 120.365 462.305 115.383 461.892ZM113.457 458.122C114.387 457.893 115.09 458.047 115.293 458.097C115.551 458.16 115.694 458.232 115.7 458.235C115.716 458.242 115.722 458.246 115.719 458.244C115.719 458.244 115.718 458.244 115.717 458.243C115.715 458.242 115.715 458.242 115.715 458.242C115.715 458.242 115.717 458.243 115.722 458.246C115.726 458.249 115.734 458.255 115.746 458.264C115.753 458.268 115.833 458.325 115.95 458.423L109.523 466.084C109.967 466.457 110.639 466.895 111.345 467.237C111.726 467.421 112.271 467.653 112.92 467.811C113.514 467.956 114.595 468.141 115.851 467.831L113.457 458.122ZM115.826 458.322C115.648 458.182 115.413 458.023 115.403 458.016C115.305 457.949 115.173 457.858 115.033 457.762C114.744 457.565 114.376 457.312 113.986 457.038C113.118 456.43 112.429 455.919 112.181 455.699L105.546 463.18C106.295 463.845 107.466 464.68 108.247 465.228C108.681 465.532 109.085 465.809 109.381 466.012C109.534 466.117 109.647 466.194 109.731 466.252C109.903 466.371 109.787 466.294 109.648 466.185L115.826 458.322ZM112.205 455.72C112.466 455.955 113.28 456.747 113.495 458.167C113.614 458.951 113.517 459.755 113.215 460.479C112.93 461.165 112.536 461.605 112.282 461.838L105.522 454.469C104.313 455.578 103.266 457.408 103.609 459.668C103.891 461.53 104.993 462.684 105.522 463.159L112.205 455.72ZM112.366 461.759C113.786 460.395 115.488 458.694 116.546 457.586L109.311 450.683C108.374 451.664 106.778 453.26 105.438 454.548L112.366 461.759ZM116.546 457.586C116.989 457.122 117.385 456.568 117.686 455.981C117.836 455.688 118.044 455.23 118.182 454.653C118.289 454.21 118.546 452.946 117.975 451.492C117.206 449.534 115.476 448.496 113.862 448.284C112.633 448.123 111.657 448.441 111.264 448.583C110.378 448.903 109.594 449.419 109.029 449.821L114.833 457.965C115.227 457.684 115.104 457.828 114.658 457.99C114.484 458.052 113.671 458.345 112.559 458.199C111.933 458.117 111.119 457.881 110.328 457.302C109.513 456.706 108.973 455.926 108.668 455.149C108.13 453.78 108.384 452.63 108.459 452.318C108.566 451.872 108.714 451.561 108.787 451.42C108.931 451.138 109.098 450.906 109.311 450.683L116.546 457.586ZM109.001 449.842C107.667 450.807 106.338 451.746 105.338 452.445C104.84 452.795 104.425 453.083 104.136 453.284C103.992 453.384 103.879 453.462 103.802 453.515C103.764 453.541 103.735 453.561 103.716 453.575C103.706 453.581 103.699 453.586 103.694 453.589C103.692 453.591 103.69 453.592 103.689 453.593C103.689 453.593 103.688 453.593 103.688 453.594C103.688 453.594 103.688 453.594 103.688 453.594C103.688 453.594 103.688 453.594 103.688 453.594C103.688 453.594 103.688 453.594 106.524 457.711C109.361 461.829 109.361 461.829 109.361 461.829C109.361 461.829 109.361 461.829 109.361 461.829C109.361 461.829 109.361 461.829 109.361 461.829C109.362 461.828 109.362 461.828 109.363 461.827C109.365 461.826 109.367 461.825 109.37 461.823C109.376 461.819 109.384 461.813 109.395 461.806C109.416 461.791 109.447 461.769 109.488 461.741C109.569 461.685 109.687 461.604 109.836 461.5C110.136 461.292 110.563 460.995 111.075 460.636C112.099 459.919 113.473 458.949 114.862 457.944L109.001 449.842ZM106.524 457.711C103.785 453.529 103.787 453.527 103.79 453.525C103.791 453.525 103.793 453.523 103.795 453.522C103.798 453.52 103.802 453.518 103.805 453.515C103.812 453.511 103.819 453.506 103.826 453.502C103.84 453.493 103.854 453.484 103.868 453.476C103.895 453.458 103.923 453.441 103.951 453.425C104.006 453.391 104.062 453.36 104.118 453.329C104.23 453.269 104.343 453.214 104.458 453.166C104.688 453.068 104.923 452.995 105.16 452.951C105.665 452.858 106.053 452.917 106.26 452.982L103.26 462.521C104.618 462.948 105.888 462.987 106.988 462.783C107.522 462.684 107.982 462.533 108.363 462.372C108.553 462.291 108.723 462.208 108.873 462.127C108.948 462.086 109.018 462.046 109.083 462.007C109.116 461.988 109.147 461.968 109.177 461.95C109.192 461.94 109.207 461.931 109.222 461.922C109.229 461.917 109.236 461.912 109.243 461.908C109.247 461.905 109.25 461.903 109.254 461.901C109.255 461.9 109.258 461.898 109.259 461.897C109.261 461.896 109.264 461.894 106.524 457.711ZM106.26 452.982C105.75 452.821 105.177 452.628 104.717 452.469C104.49 452.39 104.298 452.323 104.163 452.275C104.096 452.251 104.043 452.232 104.008 452.22C103.99 452.213 103.977 452.209 103.969 452.206C103.965 452.204 103.962 452.203 103.96 452.203C103.959 452.202 103.959 452.202 103.958 452.202C103.958 452.202 103.958 452.202 103.958 452.202C103.958 452.202 103.958 452.202 103.958 452.202C103.958 452.202 103.959 452.202 103.959 452.202C103.959 452.202 103.959 452.202 102.268 456.908C100.577 461.613 100.577 461.613 100.577 461.613C100.577 461.613 100.577 461.613 100.577 461.613C100.577 461.613 100.577 461.613 100.578 461.613C100.578 461.613 100.578 461.614 100.579 461.614C100.58 461.614 100.581 461.615 100.583 461.615C100.587 461.616 100.591 461.618 100.597 461.62C100.609 461.625 100.626 461.631 100.647 461.638C100.69 461.654 100.751 461.675 100.828 461.702C100.981 461.756 101.195 461.832 101.448 461.919C101.947 462.092 102.62 462.32 103.261 462.521L106.26 452.982ZM102.268 456.908C105.008 452.725 105.01 452.727 105.013 452.729C105.014 452.729 105.016 452.731 105.018 452.732C105.022 452.734 105.025 452.737 105.028 452.739C105.035 452.743 105.042 452.748 105.049 452.753C105.063 452.762 105.077 452.772 105.091 452.781C105.12 452.801 105.148 452.821 105.178 452.842C105.236 452.883 105.297 452.93 105.362 452.982C105.486 453.081 105.645 453.22 105.815 453.404C106.088 453.698 106.763 454.505 106.952 455.808C107.054 456.507 106.996 457.247 106.753 457.958C106.516 458.65 106.156 459.162 105.839 459.508C105.531 459.844 105.245 460.043 105.083 460.144C104.918 460.247 104.813 460.289 104.813 460.289L101.027 451.034C100.314 451.325 99.3127 451.829 98.47 452.747C97.4782 453.829 96.7918 455.424 97.0559 457.244C97.2785 458.778 98.0857 459.775 98.4816 460.202C98.7136 460.453 98.9324 460.644 99.1005 460.779C99.1871 460.849 99.2672 460.909 99.3378 460.959C99.3734 460.985 99.4071 461.009 99.4387 461.03C99.4545 461.041 99.4698 461.052 99.4847 461.061C99.4921 461.066 99.4994 461.071 99.5065 461.076C99.5101 461.078 99.5137 461.081 99.5172 461.083C99.519 461.084 99.5216 461.086 99.5225 461.087C99.5251 461.088 99.5277 461.09 102.268 456.908Z" fill="#131313" mask="url(#path-10-inside-1_1_213)"/>
<rect x="144.75" y="442.75" width="26.5" height="26.5" rx="7.25" stroke="#131313" stroke-width="1.5"/>
<path d="M153.47 455.962C153.47 453.438 155.515 451.392 158.038 451.392C160.561 451.392 162.607 453.438 162.607 455.962C162.607 458.485 160.561 460.531 158.038 460.531C155.515 460.531 153.47 458.485 153.47 455.962ZM151 455.962C151 459.849 154.151 463 158.038 463C161.925 463 165.076 459.849 165.076 455.962C165.076 452.074 161.925 448.923 158.038 448.923C154.151 448.923 151 452.074 151 455.962ZM163.71 448.644C163.71 448.969 163.807 449.288 163.987 449.558C164.168 449.829 164.425 450.04 164.725 450.164C165.026 450.289 165.356 450.322 165.675 450.258C165.995 450.195 166.288 450.038 166.518 449.808C166.748 449.578 166.905 449.285 166.968 448.966C167.032 448.647 166.999 448.317 166.875 448.016C166.751 447.715 166.54 447.458 166.27 447.278C165.999 447.097 165.681 447 165.356 447C164.92 447 164.501 447.173 164.193 447.482C163.884 447.79 163.711 448.208 163.71 448.644Z" fill="black"/>
<path d="M208.286 460.205C207.915 460.213 207.564 460.127 207.215 460.009C206.665 459.822 206.122 459.621 205.612 459.339C204.946 458.971 204.354 458.503 203.811 457.972C203.142 457.319 202.569 456.59 202.069 455.803C201.9 455.537 201.767 455.253 201.661 454.957C201.412 454.266 201.4 453.58 201.7 452.901C201.844 452.573 202.068 452.3 202.327 452.057C202.474 451.919 202.656 451.85 202.862 451.854C203.017 451.856 203.172 451.86 203.327 451.86C203.492 451.86 203.605 451.94 203.682 452.081C203.791 452.278 203.862 452.492 203.95 452.698C204.123 453.105 204.282 453.518 204.462 453.921C204.517 454.045 204.514 454.165 204.457 454.291C204.327 454.582 204.107 454.805 203.902 455.039C203.886 455.057 203.868 455.074 203.852 455.092C203.74 455.218 203.724 455.326 203.81 455.472C204.475 456.606 205.378 457.48 206.594 458.011C206.691 458.053 206.787 458.099 206.884 458.14C207.074 458.222 207.189 458.197 207.322 458.038C207.537 457.781 207.754 457.525 207.956 457.259C207.987 457.218 208.013 457.172 208.044 457.132C208.135 457.018 208.251 457.006 208.383 457.042C208.555 457.09 208.713 457.17 208.874 457.246C209.317 457.458 209.758 457.674 210.199 457.89C210.46 458.017 210.483 458.052 210.47 458.342C210.458 458.621 210.396 458.892 210.294 459.151C210.233 459.305 210.125 459.429 210.003 459.539C209.696 459.816 209.346 460.019 208.947 460.133C208.732 460.195 208.508 460.202 208.286 460.205Z" fill="black"/>
<path d="M205.995 447C201.094 447 197.123 450.999 197.123 455.932C197.123 457.544 197.547 459.056 198.289 460.362L197 465L201.718 463.759C202.986 464.463 204.444 464.863 205.995 464.863C210.895 464.863 214.867 460.864 214.867 455.931C214.867 450.998 210.894 447 205.995 447ZM205.995 463.299C204.513 463.299 203.134 462.856 201.981 462.093L199.184 462.84L199.94 460.071C199.142 458.891 198.676 457.466 198.676 455.931C198.676 451.862 201.953 448.564 205.995 448.564C210.037 448.564 213.313 451.862 213.313 455.931C213.312 460.001 210.036 463.299 205.995 463.299Z" fill="black"/>
<rect x="192.75" y="442.75" width="26.5" height="26.5" rx="7.25" stroke="#131313" stroke-width="1.5"/>
<path d="M366.464 30.16C365.365 30.16 364.469 29.9147 363.776 29.424C363.093 28.9227 362.688 28.1387 362.56 27.072H364.368C364.475 27.648 364.704 28.0587 365.056 28.304C365.419 28.5493 365.867 28.672 366.4 28.672C366.976 28.672 367.461 28.4747 367.856 28.08C368.251 27.6747 368.491 27.12 368.576 26.416H365.024V25.088H368.576C368.491 24.384 368.251 23.8613 367.856 23.52C367.472 23.1787 366.971 23.008 366.352 23.008C365.829 23.008 365.392 23.152 365.04 23.44C364.688 23.7173 364.459 24.1227 364.352 24.656H362.544C362.587 24.1547 362.715 23.7067 362.928 23.312C363.152 22.9067 363.435 22.5707 363.776 22.304C364.117 22.0267 364.507 21.8187 364.944 21.68C365.392 21.5307 365.872 21.456 366.384 21.456C367.003 21.456 367.568 21.552 368.08 21.744C368.603 21.936 369.051 22.2133 369.424 22.576C369.797 22.9387 370.085 23.3813 370.288 23.904C370.501 24.4267 370.608 25.0187 370.608 25.68V25.808C370.608 26.48 370.496 27.0827 370.272 27.616C370.059 28.1493 369.765 28.608 369.392 28.992C369.019 29.3653 368.581 29.6533 368.08 29.856C367.579 30.0587 367.04 30.16 366.464 30.16ZM378.377 23.072H375.817V30H373.881V23.072H371.321V21.632H378.377V23.072ZM382 30.16C381.616 30.16 381.254 30.112 380.912 30.016C380.571 29.92 380.272 29.776 380.016 29.584C379.771 29.3813 379.574 29.1253 379.424 28.816C379.275 28.496 379.2 28.1173 379.2 27.68C379.2 27.1893 379.312 26.7787 379.536 26.448C379.76 26.1067 380.064 25.8347 380.448 25.632C380.832 25.4187 381.286 25.264 381.808 25.168C382.331 25.072 382.891 25.024 383.488 25.024H384.528V24.592C384.528 24.0267 384.416 23.6053 384.192 23.328C383.979 23.0507 383.584 22.912 383.008 22.912C382.496 22.912 382.112 23.0293 381.856 23.264C381.611 23.488 381.462 23.808 381.408 24.224H379.536C379.579 23.7333 379.702 23.3173 379.904 22.976C380.107 22.624 380.368 22.336 380.688 22.112C381.008 21.888 381.376 21.7227 381.792 21.616C382.208 21.5093 382.651 21.456 383.12 21.456C383.59 21.456 384.027 21.5093 384.432 21.616C384.838 21.712 385.19 21.8827 385.488 22.128C385.798 22.3627 386.038 22.6773 386.208 23.072C386.379 23.456 386.464 23.936 386.464 24.512V30H384.56V28.976C384.283 29.3387 383.947 29.6267 383.552 29.84C383.158 30.0533 382.64 30.16 382 30.16ZM382.464 28.768C383.062 28.768 383.552 28.624 383.936 28.336C384.331 28.0373 384.528 27.616 384.528 27.072V26.24H383.536C382.8 26.24 382.214 26.3413 381.776 26.544C381.339 26.736 381.12 27.088 381.12 27.6C381.12 27.952 381.222 28.2347 381.424 28.448C381.638 28.6613 381.984 28.768 382.464 28.768ZM397.806 23.072H394.494V30H392.558V21.632H399.742V30H397.806V23.072ZM404.315 26.64C404.261 27.2053 404.181 27.7067 404.075 28.144C403.968 28.5813 403.819 28.9493 403.627 29.248C403.445 29.536 403.216 29.7547 402.939 29.904C402.672 30.0533 402.341 30.128 401.947 30.128C401.691 30.128 401.509 30.112 401.403 30.08C401.339 30.0587 401.285 30.0373 401.243 30.016V28.4C401.264 28.4107 401.296 28.4213 401.339 28.432C401.424 28.4533 401.52 28.464 401.627 28.464C401.947 28.464 402.176 28.272 402.315 27.888C402.453 27.4933 402.555 26.9707 402.619 26.32C402.651 25.968 402.672 25.5307 402.683 25.008C402.704 24.4747 402.725 23.9573 402.747 23.456C402.768 22.8693 402.784 22.2613 402.795 21.632H408.891V30H406.971V23.072H404.491C404.48 23.3493 404.469 23.6427 404.459 23.952C404.448 24.2507 404.437 24.5547 404.427 24.864C404.416 25.1733 404.4 25.4827 404.379 25.792C404.357 26.0907 404.336 26.3733 404.315 26.64ZM413.391 30.16C413.007 30.16 412.644 30.112 412.303 30.016C411.962 29.92 411.663 29.776 411.407 29.584C411.162 29.3813 410.964 29.1253 410.815 28.816C410.666 28.496 410.591 28.1173 410.591 27.68C410.591 27.1893 410.703 26.7787 410.927 26.448C411.151 26.1067 411.455 25.8347 411.839 25.632C412.223 25.4187 412.676 25.264 413.199 25.168C413.722 25.072 414.282 25.024 414.879 25.024H415.919V24.592C415.919 24.0267 415.807 23.6053 415.583 23.328C415.37 23.0507 414.975 22.912 414.399 22.912C413.887 22.912 413.503 23.0293 413.247 23.264C413.002 23.488 412.852 23.808 412.799 24.224H410.927C410.97 23.7333 411.092 23.3173 411.295 22.976C411.498 22.624 411.759 22.336 412.079 22.112C412.399 21.888 412.767 21.7227 413.183 21.616C413.599 21.5093 414.042 21.456 414.511 21.456C414.98 21.456 415.418 21.5093 415.823 21.616C416.228 21.712 416.58 21.8827 416.879 22.128C417.188 22.3627 417.428 22.6773 417.599 23.072C417.77 23.456 417.855 23.936 417.855 24.512V30H415.951V28.976C415.674 29.3387 415.338 29.6267 414.943 29.84C414.548 30.0533 414.031 30.16 413.391 30.16ZM413.855 28.768C414.452 28.768 414.943 28.624 415.327 28.336C415.722 28.0373 415.919 27.616 415.919 27.072V26.24H414.927C414.191 26.24 413.604 26.3413 413.167 26.544C412.73 26.736 412.511 27.088 412.511 27.6C412.511 27.952 412.612 28.2347 412.815 28.448C413.028 28.6613 413.375 28.768 413.855 28.768ZM420.074 21.632H422.01V28.56H424.554V21.632H426.49V28.56H429.034V21.632H430.97V30H420.074V21.632ZM435.213 25.904V30H433.277V21.632H435.213V25.344L438.205 21.632H440.317L437.069 25.504L440.589 30H438.349L435.213 25.904ZM443.953 30.16C443.569 30.16 443.207 30.112 442.865 30.016C442.524 29.92 442.225 29.776 441.969 29.584C441.724 29.3813 441.527 29.1253 441.377 28.816C441.228 28.496 441.153 28.1173 441.153 27.68C441.153 27.1893 441.265 26.7787 441.489 26.448C441.713 26.1067 442.017 25.8347 442.401 25.632C442.785 25.4187 443.239 25.264 443.761 25.168C444.284 25.072 444.844 25.024 445.441 25.024H446.481V24.592C446.481 24.0267 446.369 23.6053 446.145 23.328C445.932 23.0507 445.537 22.912 444.961 22.912C444.449 22.912 444.065 23.0293 443.809 23.264C443.564 23.488 443.415 23.808 443.361 24.224H441.489C441.532 23.7333 441.655 23.3173 441.857 22.976C442.06 22.624 442.321 22.336 442.641 22.112C442.961 21.888 443.329 21.7227 443.745 21.616C444.161 21.5093 444.604 21.456 445.073 21.456C445.543 21.456 445.98 21.5093 446.385 21.616C446.791 21.712 447.143 21.8827 447.441 22.128C447.751 22.3627 447.991 22.6773 448.161 23.072C448.332 23.456 448.417 23.936 448.417 24.512V30H446.513V28.976C446.236 29.3387 445.9 29.6267 445.505 29.84C445.111 30.0533 444.593 30.16 443.953 30.16ZM444.417 28.768C445.015 28.768 445.505 28.624 445.889 28.336C446.284 28.0373 446.481 27.616 446.481 27.072V26.24H445.489C444.753 26.24 444.167 26.3413 443.729 26.544C443.292 26.736 443.073 27.088 443.073 27.6C443.073 27.952 443.175 28.2347 443.377 28.448C443.591 28.6613 443.937 28.768 444.417 28.768ZM454.511 30V21.632H456.447V27.552L460.063 21.632H461.983V30H460.063V24.08L456.447 30H454.511ZM473.338 23.072H470.026V30H468.09V21.632H475.274V30H473.338V23.072ZM481.318 28.656C482.043 28.656 482.609 28.4107 483.014 27.92C483.419 27.4187 483.622 26.736 483.622 25.872V25.76C483.622 24.896 483.419 24.2187 483.014 23.728C482.609 23.2267 482.043 22.976 481.318 22.976C480.593 22.976 480.022 23.2213 479.606 23.712C479.201 24.2027 478.998 24.88 478.998 25.744V25.872C478.998 26.736 479.201 27.4187 479.606 27.92C480.011 28.4107 480.582 28.656 481.318 28.656ZM481.302 30.16C480.683 30.16 480.113 30.0587 479.59 29.856C479.067 29.6533 478.614 29.3653 478.23 28.992C477.846 28.6187 477.547 28.1707 477.334 27.648C477.121 27.1253 477.014 26.544 477.014 25.904V25.776C477.014 25.1253 477.121 24.5387 477.334 24.016C477.558 23.4827 477.862 23.0293 478.246 22.656C478.63 22.272 479.083 21.9787 479.606 21.776C480.129 21.5627 480.699 21.456 481.318 21.456C481.926 21.456 482.491 21.5573 483.014 21.76C483.537 21.9627 483.99 22.256 484.374 22.64C484.758 23.0133 485.057 23.4613 485.27 23.984C485.494 24.5067 485.606 25.088 485.606 25.728V25.856C485.606 26.5067 485.494 27.0987 485.27 27.632C485.057 28.1547 484.758 28.608 484.374 28.992C483.99 29.3653 483.537 29.6533 483.014 29.856C482.491 30.0587 481.921 30.16 481.302 30.16ZM489.361 26.448C489.307 26.9173 489.243 27.3227 489.169 27.664C489.094 28.0053 488.993 28.304 488.865 28.56H492.113V23.056H489.569C489.547 23.568 489.521 24.1333 489.489 24.752C489.457 25.3707 489.414 25.936 489.361 26.448ZM487.825 32.032H486.177V28.56H486.705C487.003 28.4533 487.211 28.208 487.329 27.824C487.457 27.4293 487.558 26.928 487.633 26.32C487.675 25.968 487.713 25.5787 487.745 25.152C487.777 24.7147 487.803 24.2827 487.825 23.856C487.846 23.4293 487.862 23.024 487.873 22.64C487.883 22.2453 487.889 21.9093 487.889 21.632H494.033V28.56H495.249V32.032H493.601L493.537 30H487.889L487.825 32.032ZM368.4 42.072H365.088V49H363.152V40.632H370.336V49H368.4V42.072ZM376.38 47.656C377.106 47.656 377.671 47.4107 378.076 46.92C378.482 46.4187 378.684 45.736 378.684 44.872V44.76C378.684 43.896 378.482 43.2187 378.076 42.728C377.671 42.2267 377.106 41.976 376.38 41.976C375.655 41.976 375.084 42.2213 374.668 42.712C374.263 43.2027 374.06 43.88 374.06 44.744V44.872C374.06 45.736 374.263 46.4187 374.668 46.92C375.074 47.4107 375.644 47.656 376.38 47.656ZM376.364 49.16C375.746 49.16 375.175 49.0587 374.652 48.856C374.13 48.6533 373.676 48.3653 373.292 47.992C372.908 47.6187 372.61 47.1707 372.396 46.648C372.183 46.1253 372.076 45.544 372.076 44.904V44.776C372.076 44.1253 372.183 43.5387 372.396 43.016C372.62 42.4827 372.924 42.0293 373.308 41.656C373.692 41.272 374.146 40.9787 374.668 40.776C375.191 40.5627 375.762 40.456 376.38 40.456C376.988 40.456 377.554 40.5573 378.076 40.76C378.599 40.9627 379.052 41.256 379.436 41.64C379.82 42.0133 380.119 42.4613 380.332 42.984C380.556 43.5067 380.668 44.088 380.668 44.728V44.856C380.668 45.5067 380.556 46.0987 380.332 46.632C380.119 47.1547 379.82 47.608 379.436 47.992C379.052 48.3653 378.599 48.6533 378.076 48.856C377.554 49.0587 376.983 49.16 376.364 49.16ZM387.666 42.072H384.354V49H382.418V40.632H389.602V49H387.666V42.072ZM394.094 49.16C393.71 49.16 393.347 49.112 393.006 49.016C392.665 48.92 392.366 48.776 392.11 48.584C391.865 48.3813 391.667 48.1253 391.518 47.816C391.369 47.496 391.294 47.1173 391.294 46.68C391.294 46.1893 391.406 45.7787 391.63 45.448C391.854 45.1067 392.158 44.8347 392.542 44.632C392.926 44.4187 393.379 44.264 393.902 44.168C394.425 44.072 394.985 44.024 395.582 44.024H396.622V43.592C396.622 43.0267 396.51 42.6053 396.286 42.328C396.073 42.0507 395.678 41.912 395.102 41.912C394.59 41.912 394.206 42.0293 393.95 42.264C393.705 42.488 393.555 42.808 393.502 43.224H391.63C391.673 42.7333 391.795 42.3173 391.998 41.976C392.201 41.624 392.462 41.336 392.782 41.112C393.102 40.888 393.47 40.7227 393.886 40.616C394.302 40.5093 394.745 40.456 395.214 40.456C395.683 40.456 396.121 40.5093 396.526 40.616C396.931 40.712 397.283 40.8827 397.582 41.128C397.891 41.3627 398.131 41.6773 398.302 42.072C398.473 42.456 398.558 42.936 398.558 43.512V49H396.654V47.976C396.377 48.3387 396.041 48.6267 395.646 48.84C395.251 49.0533 394.734 49.16 394.094 49.16ZM394.558 47.768C395.155 47.768 395.646 47.624 396.03 47.336C396.425 47.0373 396.622 46.616 396.622 46.072V45.24H395.63C394.894 45.24 394.307 45.3413 393.87 45.544C393.433 45.736 393.214 46.088 393.214 46.6C393.214 46.952 393.315 47.2347 393.518 47.448C393.731 47.6613 394.078 47.768 394.558 47.768ZM406.025 42.072H402.713V49H400.777V40.632H407.961V49H406.025V42.072ZM409.557 50.44L411.013 46.648L412.853 47.384L410.757 50.968L409.557 50.44ZM418.871 49V40.632H420.807V46.552L424.423 40.632H426.343V49H424.423V43.08L420.807 49H418.871ZM437.697 42.072H434.385V49H432.449V40.632H439.633V49H437.697V42.072ZM445.677 47.656C446.403 47.656 446.968 47.4107 447.373 46.92C447.779 46.4187 447.981 45.736 447.981 44.872V44.76C447.981 43.896 447.779 43.2187 447.373 42.728C446.968 42.2267 446.403 41.976 445.677 41.976C444.952 41.976 444.381 42.2213 443.965 42.712C443.56 43.2027 443.357 43.88 443.357 44.744V44.872C443.357 45.736 443.56 46.4187 443.965 46.92C444.371 47.4107 444.941 47.656 445.677 47.656ZM445.661 49.16C445.043 49.16 444.472 49.0587 443.949 48.856C443.427 48.6533 442.973 48.3653 442.589 47.992C442.205 47.6187 441.907 47.1707 441.693 46.648C441.48 46.1253 441.373 45.544 441.373 44.904V44.776C441.373 44.1253 441.48 43.5387 441.693 43.016C441.917 42.4827 442.221 42.0293 442.605 41.656C442.989 41.272 443.443 40.9787 443.965 40.776C444.488 40.5627 445.059 40.456 445.677 40.456C446.285 40.456 446.851 40.5573 447.373 40.76C447.896 40.9627 448.349 41.256 448.733 41.64C449.117 42.0133 449.416 42.4613 449.629 42.984C449.853 43.5067 449.965 44.088 449.965 44.728V44.856C449.965 45.5067 449.853 46.0987 449.629 46.632C449.416 47.1547 449.117 47.608 448.733 47.992C448.349 48.3653 447.896 48.6533 447.373 48.856C446.851 49.0587 446.28 49.16 445.661 49.16ZM453.72 45.448C453.667 45.9173 453.603 46.3227 453.528 46.664C453.453 47.0053 453.352 47.304 453.224 47.56H456.472V42.056H453.928C453.907 42.568 453.88 43.1333 453.848 43.752C453.816 44.3707 453.773 44.936 453.72 45.448ZM452.184 51.032H450.536V47.56H451.064C451.363 47.4533 451.571 47.208 451.688 46.824C451.816 46.4293 451.917 45.928 451.992 45.32C452.035 44.968 452.072 44.5787 452.104 44.152C452.136 43.7147 452.163 43.2827 452.184 42.856C452.205 42.4293 452.221 42.024 452.232 41.64C452.243 41.2453 452.248 40.9093 452.248 40.632H458.392V47.56H459.608V51.032H457.96L457.896 49H452.248L452.184 51.032ZM362.576 59.888L364.576 56.368L365.712 56.864L364.336 60.576L362.576 59.888ZM365.728 59.888L367.728 56.368L368.848 56.864L367.488 60.576L365.728 59.888ZM375.228 61.072H371.916V68H369.98V59.632H377.164V68H375.228V61.072ZM383.209 66.656C383.934 66.656 384.499 66.4107 384.905 65.92C385.31 65.4187 385.513 64.736 385.513 63.872V63.76C385.513 62.896 385.31 62.2187 384.905 61.728C384.499 61.2267 383.934 60.976 383.209 60.976C382.483 60.976 381.913 61.2213 381.497 61.712C381.091 62.2027 380.889 62.88 380.889 63.744V63.872C380.889 64.736 381.091 65.4187 381.497 65.92C381.902 66.4107 382.473 66.656 383.209 66.656ZM383.193 68.16C382.574 68.16 382.003 68.0587 381.481 67.856C380.958 67.6533 380.505 67.3653 380.121 66.992C379.737 66.6187 379.438 66.1707 379.225 65.648C379.011 65.1253 378.905 64.544 378.905 63.904V63.776C378.905 63.1253 379.011 62.5387 379.225 62.016C379.449 61.4827 379.753 61.0293 380.137 60.656C380.521 60.272 380.974 59.9787 381.497 59.776C382.019 59.5627 382.59 59.456 383.209 59.456C383.817 59.456 384.382 59.5573 384.905 59.76C385.427 59.9627 385.881 60.256 386.265 60.64C386.649 61.0133 386.947 61.4613 387.161 61.984C387.385 62.5067 387.497 63.088 387.497 63.728V63.856C387.497 64.5067 387.385 65.0987 387.161 65.632C386.947 66.1547 386.649 66.608 386.265 66.992C385.881 67.3653 385.427 67.6533 384.905 67.856C384.382 68.0587 383.811 68.16 383.193 68.16ZM395.342 61.76C395.342 62.208 395.214 62.6027 394.958 62.944C394.712 63.2747 394.334 63.4933 393.822 63.6C394.398 63.696 394.851 63.8987 395.182 64.208C395.512 64.5173 395.678 64.9387 395.678 65.472V65.52C395.678 65.904 395.598 66.256 395.438 66.576C395.278 66.896 395.048 67.1733 394.75 67.408C394.451 67.6427 394.088 67.8293 393.662 67.968C393.235 68.096 392.76 68.16 392.238 68.16C391.118 68.16 390.254 67.904 389.646 67.392C389.048 66.88 388.707 66.1653 388.622 65.248H390.398C390.483 65.7067 390.664 66.064 390.942 66.32C391.219 66.5653 391.646 66.688 392.222 66.688C392.723 66.688 393.091 66.5867 393.326 66.384C393.56 66.1707 393.678 65.8773 393.678 65.504V65.456C393.678 64.72 393.203 64.352 392.254 64.352H391.102V63.056H392.094C392.531 63.056 392.846 62.9707 393.038 62.8C393.24 62.6293 393.342 62.368 393.342 62.016V61.968C393.342 61.68 393.246 61.4453 393.054 61.264C392.872 61.072 392.558 60.976 392.11 60.976C391.299 60.976 390.798 61.3653 390.606 62.144H388.846C388.899 61.664 389.027 61.2533 389.23 60.912C389.432 60.5707 389.683 60.2933 389.982 60.08C390.28 59.8667 390.616 59.712 390.99 59.616C391.374 59.5093 391.774 59.456 392.19 59.456C392.638 59.456 393.054 59.5093 393.438 59.616C393.822 59.712 394.152 59.856 394.43 60.048C394.718 60.24 394.942 60.48 395.102 60.768C395.262 61.0453 395.342 61.36 395.342 61.712V61.76ZM399.689 64.448C399.636 64.9173 399.572 65.3227 399.497 65.664C399.422 66.0053 399.321 66.304 399.193 66.56H402.441V61.056H399.897C399.876 61.568 399.849 62.1333 399.817 62.752C399.785 63.3707 399.742 63.936 399.689 64.448ZM398.153 70.032H396.505V66.56H397.033C397.332 66.4533 397.54 66.208 397.657 65.824C397.785 65.4293 397.886 64.928 397.961 64.32C398.004 63.968 398.041 63.5787 398.073 63.152C398.105 62.7147 398.132 62.2827 398.153 61.856C398.174 61.4293 398.19 61.024 398.201 60.64C398.212 60.2453 398.217 59.9093 398.217 59.632H404.361V66.56H405.577V70.032H403.929L403.865 68H398.217L398.153 70.032ZM406.98 59.632H408.916V60.976C409.033 60.7733 409.183 60.5813 409.364 60.4C409.545 60.2187 409.753 60.0587 409.988 59.92C410.233 59.7813 410.495 59.6693 410.772 59.584C411.049 59.4987 411.343 59.456 411.652 59.456C412.175 59.456 412.66 59.552 413.108 59.744C413.567 59.936 413.961 60.2133 414.292 60.576C414.623 60.9387 414.884 61.3867 415.076 61.92C415.268 62.4427 415.364 63.04 415.364 63.712V63.84C415.364 64.512 415.268 65.1147 415.076 65.648C414.895 66.1813 414.639 66.6347 414.308 67.008C413.988 67.3813 413.599 67.6693 413.14 67.872C412.692 68.064 412.196 68.16 411.652 68.16C410.98 68.16 410.409 68.016 409.94 67.728C409.481 67.44 409.14 67.0933 408.916 66.688V70.864H406.98V59.632ZM411.172 66.624C411.887 66.624 412.431 66.3947 412.804 65.936C413.188 65.4667 413.38 64.7787 413.38 63.872V63.744C413.38 63.2853 413.321 62.8853 413.204 62.544C413.097 62.192 412.943 61.8987 412.74 61.664C412.537 61.4293 412.303 61.2587 412.036 61.152C411.769 61.0347 411.476 60.976 411.156 60.976C410.484 60.976 409.929 61.2053 409.492 61.664C409.065 62.112 408.852 62.8053 408.852 63.744V63.872C408.852 64.8107 409.06 65.504 409.476 65.952C409.903 66.4 410.468 66.624 411.172 66.624ZM419.297 68.16C418.913 68.16 418.55 68.112 418.209 68.016C417.868 67.92 417.569 67.776 417.313 67.584C417.068 67.3813 416.87 67.1253 416.721 66.816C416.572 66.496 416.497 66.1173 416.497 65.68C416.497 65.1893 416.609 64.7787 416.833 64.448C417.057 64.1067 417.361 63.8347 417.745 63.632C418.129 63.4187 418.582 63.264 419.105 63.168C419.628 63.072 420.188 63.024 420.785 63.024H421.825V62.592C421.825 62.0267 421.713 61.6053 421.489 61.328C421.276 61.0507 420.881 60.912 420.305 60.912C419.793 60.912 419.409 61.0293 419.153 61.264C418.908 61.488 418.758 61.808 418.705 62.224H416.833C416.876 61.7333 416.998 61.3173 417.201 60.976C417.404 60.624 417.665 60.336 417.985 60.112C418.305 59.888 418.673 59.7227 419.089 59.616C419.505 59.5093 419.948 59.456 420.417 59.456C420.886 59.456 421.324 59.5093 421.729 59.616C422.134 59.712 422.486 59.8827 422.785 60.128C423.094 60.3627 423.334 60.6773 423.505 61.072C423.676 61.456 423.761 61.936 423.761 62.512V68H421.857V66.976C421.58 67.3387 421.244 67.6267 420.849 67.84C420.454 68.0533 419.937 68.16 419.297 68.16ZM419.761 66.768C420.358 66.768 420.849 66.624 421.233 66.336C421.628 66.0373 421.825 65.616 421.825 65.072V64.24H420.833C420.097 64.24 419.51 64.3413 419.073 64.544C418.636 64.736 418.417 65.088 418.417 65.6C418.417 65.952 418.518 66.2347 418.721 66.448C418.934 66.6613 419.281 66.768 419.761 66.768ZM425.98 59.632H429.356C429.793 59.632 430.199 59.6693 430.572 59.744C430.945 59.8187 431.265 59.9413 431.532 60.112C431.809 60.272 432.023 60.4853 432.172 60.752C432.332 61.0187 432.412 61.344 432.412 61.728V61.76C432.412 62.208 432.289 62.5973 432.044 62.928C431.809 63.2587 431.436 63.4827 430.924 63.6C431.5 63.7173 431.953 63.9253 432.284 64.224C432.615 64.5227 432.78 64.944 432.78 65.488V65.536C432.78 66.336 432.508 66.9493 431.964 67.376C431.431 67.792 430.663 68 429.66 68H425.98V59.632ZM427.916 60.928V63.056H429.084C429.553 63.056 429.895 62.9707 430.108 62.8C430.321 62.6187 430.428 62.336 430.428 61.952V61.92C430.428 61.536 430.305 61.2747 430.06 61.136C429.825 60.9973 429.479 60.928 429.02 60.928H427.916ZM427.916 64.352V66.704H429.292C429.793 66.704 430.167 66.6133 430.412 66.432C430.668 66.2507 430.796 65.9573 430.796 65.552V65.52C430.796 64.7413 430.316 64.352 429.356 64.352H427.916ZM436.908 64.64C436.855 65.2053 436.775 65.7067 436.668 66.144C436.562 66.5813 436.412 66.9493 436.22 67.248C436.039 67.536 435.81 67.7547 435.532 67.904C435.266 68.0533 434.935 68.128 434.54 68.128C434.284 68.128 434.103 68.112 433.996 68.08C433.932 68.0587 433.879 68.0373 433.836 68.016V66.4C433.858 66.4107 433.89 66.4213 433.932 66.432C434.018 66.4533 434.114 66.464 434.22 66.464C434.54 66.464 434.77 66.272 434.908 65.888C435.047 65.4933 435.148 64.9707 435.212 64.32C435.244 63.968 435.266 63.5307 435.276 63.008C435.298 62.4747 435.319 61.9573 435.34 61.456C435.362 60.8693 435.378 60.2613 435.388 59.632H441.484V68H439.564V61.072H437.084C437.074 61.3493 437.063 61.6427 437.052 61.952C437.042 62.2507 437.031 62.5547 437.02 62.864C437.01 63.1733 436.994 63.4827 436.972 63.792C436.951 64.0907 436.93 64.3733 436.908 64.64ZM447.009 61.04C445.974 61.04 445.457 61.4613 445.457 62.304V62.352C445.457 62.768 445.574 63.0827 445.809 63.296C446.054 63.4987 446.454 63.6 447.009 63.6H448.193V61.04H447.009ZM445.057 68H442.929L445.217 64.56C444.726 64.4107 444.315 64.1653 443.985 63.824C443.665 63.472 443.505 62.976 443.505 62.336V62.288C443.505 61.4133 443.798 60.752 444.385 60.304C444.971 59.856 445.761 59.632 446.753 59.632H450.113V68H448.193V64.928H447.041L445.057 68ZM456.02 68.16C455.401 68.16 454.83 68.064 454.308 67.872C453.796 67.6693 453.348 67.3867 452.964 67.024C452.59 66.6507 452.297 66.2027 452.084 65.68C451.881 65.1573 451.78 64.5653 451.78 63.904V63.776C451.78 63.1253 451.881 62.5387 452.084 62.016C452.297 61.4827 452.59 61.0293 452.964 60.656C453.337 60.272 453.774 59.9787 454.276 59.776C454.788 59.5627 455.342 59.456 455.94 59.456C456.462 59.456 456.958 59.536 457.428 59.696C457.908 59.856 458.329 60.1067 458.692 60.448C459.054 60.7893 459.342 61.2267 459.556 61.76C459.78 62.2933 459.892 62.9333 459.892 63.68V64.24H453.764C453.796 65.04 454.004 65.6533 454.388 66.08C454.782 66.5067 455.342 66.72 456.068 66.72C456.654 66.72 457.102 66.608 457.412 66.384C457.721 66.16 457.913 65.8453 457.988 65.44H459.86C459.721 66.3253 459.316 67.0027 458.644 67.472C457.972 67.9307 457.097 68.16 456.02 68.16ZM457.972 62.944C457.918 62.2187 457.716 61.6907 457.364 61.36C457.022 61.0293 456.548 60.864 455.94 60.864C455.353 60.864 454.873 61.0507 454.5 61.424C454.126 61.7867 453.892 62.2933 453.796 62.944H457.972ZM463.285 61.68V68H461.621V59.632H464.293L466.389 64.848L468.501 59.632H471.013V68H469.109V61.68L466.469 68H465.829L463.285 61.68ZM474.476 68.112C474.124 68.112 473.825 67.9947 473.58 67.76C473.335 67.5147 473.212 67.216 473.212 66.864C473.212 66.512 473.335 66.2133 473.58 65.968C473.825 65.7227 474.124 65.6 474.476 65.6C474.839 65.6 475.143 65.7227 475.388 65.968C475.633 66.2133 475.756 66.512 475.756 66.864C475.756 67.216 475.633 67.5147 475.388 67.76C475.143 67.9947 474.839 68.112 474.476 68.112ZM479.163 68.112C478.811 68.112 478.513 67.9947 478.267 67.76C478.022 67.5147 477.899 67.216 477.899 66.864C477.899 66.512 478.022 66.2133 478.267 65.968C478.513 65.7227 478.811 65.6 479.163 65.6C479.526 65.6 479.83 65.7227 480.075 65.968C480.321 66.2133 480.443 66.512 480.443 66.864C480.443 67.216 480.321 67.5147 480.075 67.76C479.83 67.9947 479.526 68.112 479.163 68.112ZM483.851 68.112C483.499 68.112 483.2 67.9947 482.955 67.76C482.71 67.5147 482.587 67.216 482.587 66.864C482.587 66.512 482.71 66.2133 482.955 65.968C483.2 65.7227 483.499 65.6 483.851 65.6C484.214 65.6 484.518 65.7227 484.763 65.968C485.008 66.2133 485.131 66.512 485.131 66.864C485.131 67.216 485.008 67.5147 484.763 67.76C484.518 67.9947 484.214 68.112 483.851 68.112ZM485.111 60.064L486.487 56.368L488.231 57.056L486.247 60.576L485.111 60.064ZM488.263 60.064L489.623 56.368L491.383 57.056L489.383 60.576L488.263 60.064Z" fill="black"/>
<defs>
<clipPath id="clip0_1_213">
<rect width="328" height="148" fill="white"/>
</clipPath>
</defs>
</svg>
